<?xml version="1.0" encoding="utf-8"?>
<!-- Generator: Adobe Illustrator 28.0.0, SVG Export Plug-In . SVG Version: 6.00 Build 0)  -->
<svg version="1.2" baseProfile="tiny-ps" xmlns:xlink="http://www.w3.org/1999/xlink" viewBox="0 0 3000 3000" xmlns="http://www.w3.org/2000/svg">
  <title>Atheer Platform</title>
<g>
	<path fill="#1A1A42" d="M0,3000C0,2000,0,1000,0,0c1000,0,2000,0,3000,0c0,1000,0,2000,0,3000C2000,3000,1000,3000,0,3000z    M2293.54,1143.65c-1.75,3.38-3.5,6.77-5.25,10.15c0.58,0.31,1.17,0.62,1.76,0.92c1.93-2.96,3.86-5.92,5.79-8.88   c31.45-39.55,70.34-69.77,115.63-91.84c43.32-21.11,89.17-33.04,137.22-36.09c9.09-0.58,15.1-3.37,20.45-11.04   c16.78-24.03,34.43-47.46,51.71-71.15c2.09-2.86,4.01-5.85,6.76-9.88c-3.38,0.18-5.28,0.05-7.1,0.41   c-31.42,6.11-63.07,10.42-95.01,12.6c-31.66,2.16-63.28,2.54-94.67-3.04c-16.81-2.99-33.08-7.72-47.47-17.4   c-9.55-6.42-17.11-14.49-21.32-25.99c18.78-11.22,38.64-16.95,60.06-17.25c27.41-0.38,50.48,10.32,70.79,29   c19.02-28.87,37.64-57.13,56.46-85.71c-23.52-25.95-50.97-38.14-85.37-30.97c-17.36,3.62-32.17,12.49-45.93,23.28   c-18.51,14.52-33.75,32.15-47.54,51.06c-23.95,32.84-47.76,65.79-71.67,98.66c-11.25,15.47-11.34,16.34-0.71,32.11   c6.42,9.53,14.51,17.35,24.28,23.42c12.97,8.05,27.13,12.5,42.24,14.17c4.33,0.48,8.66,1.02,14.59,1.73   C2341.3,1063.86,2313.34,1100.66,2293.54,1143.65z M843.78,1692.47c3.04,2.25,5.71,4.17,8.32,6.16   c27.85,21.16,51.7,46.09,70.75,75.48c25.11,38.76,38.29,80.99,37.06,127.48c-0.19,7.01-1.74,13.1-6.28,18.4   c-8.01,9.36-15.5,19.23-24.12,27.99c-37.44,38-82,65.68-129.99,88.14c-88.76,41.53-183.06,62.25-279.74,73.84   c-45.03,5.4-90.27,7.93-135.58,9.46c-2.07,0.07-4.13,0.55-7.93,1.07c4.58,2.28,7.47,3.81,10.44,5.19   c35.97,16.68,72.81,31.18,110.5,43.47c88.23,28.77,178.14,47.62,271.6,45.31c7.57-0.19,14.34-1.67,20.95-5.19   c68.15-36.33,122.48-87.11,160.36-154.64c41.37-73.75,53.2-153.34,44.89-236.62c-0.81-8.16-1.79-16.31-2.74-24.97   c29.85,3.54,51.65-9.38,69.77-30.34c10.09-11.67,17.76-24.91,24.33-38.83c10.7-22.7,17.78-46.59,23.59-70.92   c0.55-2.29,1.5-4.49,2.66-7.9c8.74,37.23,16.24,73.09,25.75,108.41c7.95,29.52,17.63,58.62,27.71,87.49   c9.91,28.39,30.52,46.72,59.28,54.69c16.92,4.69,34.37,8.27,51.82,10.05c28.82,2.94,57.8,4.72,86.76,5.74   c74.94,2.65,149.89,5.17,224.86,6.73c141.33,2.94,282.62,2.45,423.69-8.26c40.87-3.1,81.55-7.85,121.38-18.08   c28.07-7.21,56.17-14.5,82.14-27.71c35.01-17.81,61.77-42.34,72.57-82.52c10.47-38.95,19.63-78.02,26.52-117.76   c8.93-51.56,4.27-101.47-14.4-150.22c-20.93-54.64-53.9-101.55-92.86-144.6c-0.28-0.31-1.11-0.12-2.48-0.22   c-18.68,62.49-37.41,125.14-56.11,187.71c3.01,2.28,5.12,3.87,7.22,5.47c25.74,19.64,50.26,40.67,72.67,64.08   c15.01,15.69,29.09,32.16,39.91,51.08c4.58,8,8.13,16.58,12.25,25.11c-9.54,7.9-19.63,12.1-29.97,15.74   c-31.89,11.23-65.06,16.83-98.32,21.74c-53.1,7.83-106.53,12.86-160.09,15.62c-69.55,3.58-139.16,6.67-208.78,8.11   c-96.97,2-193.98,1.61-290.95-1.4c-61.63-1.92-123.23-4.3-184.64-10.18c-19.66-1.88-38.59-6.98-56.51-15.59   c-14.93-7.18-26.93-17.46-33.73-32.69c-7.18-16.08-14.51-32.21-20.04-48.9c-23.64-71.25-38.3-144.71-52.24-218.3   c-3.59-18.95-6.87-37.96-10.59-58.58c-1.25,3.32-2.08,5.05-2.56,6.87c-13.16,50.22-26.33,100.43-39.32,150.69   c-0.79,3.04-0.63,6.55-0.05,9.69c3.62,19.64,7.58,39.22,11.15,58.87c0.48,2.66,0.38,6.24-1.03,8.32   c-11.84,17.44-27.77,28.46-49.37,29.92c-18.29,1.24-34.83-4.5-50.55-13.09c-17.39-9.5-32.49-22.05-46.56-35.9   c-22.42-22.08-41.41-46.95-59.07-72.89c-1.55-2.28-3.32-4.4-5.9-7.82C875.76,1573.45,859.81,1632.82,843.78,1692.47z    M2505.66,1086.41c-0.79-0.22-1.57-0.43-2.36-0.65c-0.73,1.11-1.36,2.29-2.2,3.31c-31.39,37.6-62.75,75.21-94.27,112.7   c-3.05,3.63-3.86,7.16-3.53,11.8c4.23,59.14,8.29,118.3,12.31,177.45c3.66,53.84,7.12,107.69,10.84,161.53   c4.98,72.11,10.19,144.21,15.16,216.32c3.72,53.84,7.2,107.69,10.84,161.53c0.62,9.15,1.47,18.28,2.21,27.43   c2.72-2.42,4.18-5.2,5.37-8.1c20.31-49.32,36.36-100.03,49.07-151.8c18.17-74.01,29.02-149.01,28.44-225.36   c-0.17-22.29-1.96-44.59-3.59-66.84c-2.63-35.87-6.14-71.69-8.53-107.58c-2.97-44.53-5.18-89.11-7.66-133.67   c-0.14-2.56,0.28-5.14,0.45-7.88c1.9-0.3,3.3-0.94,4.42-0.62c6.32,1.8,12.58,3.83,20.28,6.22   C2530.4,1203.16,2518.03,1144.79,2505.66,1086.41z M2082.93,1399.22c-33.45-37.31-68.04-71.98-115.53-91.43   c-21.71,30.11-43.03,59.66-64.12,88.91c-1.4-0.43-1.82-0.43-2.01-0.64c-3.41-3.64-6.77-7.33-10.18-10.97   c-23.51-25.18-48.58-48.53-78.73-65.7c-7.67-4.37-15.9-7.78-24.05-11.72c-27.85,38.73-54.95,76.42-82.22,114.35   c40.7,25.29,80.6,49.41,112.84,84.43c22.29-28.11,44.18-55.72,66.6-83.98c40.33,24.51,79.88,48.85,112.53,84   C2026.43,1470.61,2054.47,1435.17,2082.93,1399.22z M1239.34,2102.14c-2.76-3.08-4.84-5.67-7.19-7.98   c-14.75-14.44-29.09-29.34-44.47-43.07c-16.44-14.67-34.62-27.07-55.13-35.64c-2.61-1.09-5.38-1.78-8.01-2.64   c-27.51,38.27-54.46,75.77-81.62,113.56c40.43,25.21,80.39,49.18,112.78,84.42c22.44-28.25,44.5-56.03,66.71-84.01   c40.67,24.83,80.15,49.26,112.53,83.96c28.49-36,56.35-71.21,84.4-106.66c-1.76-2.32-3.03-4.21-4.53-5.91   c-16.51-18.82-34.26-36.37-53.82-52.04c-14.33-11.49-29.46-21.77-46.24-29.41c-3.5-1.59-7.17-2.81-10.83-4.23   C1282.06,2042.84,1260.87,2072.25,1239.34,2102.14z M1990.26,1213.42c-33.44-37.18-67.93-71.94-115.62-91.38   c-27.54,38.27-54.69,76.01-82.17,114.2c40.45,25.14,80.43,49.22,112.85,84.47C1933.62,1284.98,1961.7,1249.5,1990.26,1213.42z" />
	<path fill="#FEFEFE" d="M843.78,1692.47c16.03-59.65,31.98-119.02,48.38-180.02c2.59,3.42,4.36,5.54,5.9,7.82   c17.66,25.94,36.65,50.81,59.07,72.89c14.06,13.85,29.16,26.4,46.56,35.9c15.72,8.59,32.26,14.33,50.55,13.09   c21.6-1.46,37.53-12.48,49.37-29.92c1.41-2.08,1.52-5.65,1.03-8.32c-3.57-19.65-7.53-39.23-11.15-58.87   c-0.58-3.13-0.73-6.65,0.05-9.69c12.99-50.26,26.16-100.48,39.32-150.69c0.48-1.82,1.31-3.55,2.56-6.87   c3.72,20.62,7,39.63,10.59,58.58c13.95,73.6,28.61,147.05,52.24,218.3c5.53,16.68,12.86,32.81,20.04,48.9   c6.8,15.24,18.8,25.52,33.73,32.69c17.92,8.61,36.85,13.71,56.51,15.59c61.4,5.88,123.01,8.26,184.64,10.18   c96.97,3.02,193.98,3.41,290.95,1.4c69.62-1.44,139.23-4.53,208.78-8.11c53.56-2.76,106.99-7.78,160.09-15.62   c33.27-4.91,66.44-10.51,98.32-21.74c10.34-3.64,20.43-7.85,29.97-15.74c-4.13-8.54-7.68-17.12-12.25-25.11   c-10.82-18.92-24.9-35.39-39.91-51.08c-22.4-23.42-46.93-44.44-72.67-64.08c-2.1-1.6-4.21-3.19-7.22-5.47   c18.7-62.56,37.43-125.21,56.11-187.71c1.36,0.1,2.2-0.09,2.48,0.22c38.96,43.05,71.93,89.96,92.86,144.6   c18.68,48.75,23.33,98.66,14.4,150.22c-6.88,39.74-16.05,78.81-26.52,117.76c-10.8,40.18-37.56,64.72-72.57,82.52   c-25.97,13.21-54.07,20.5-82.14,27.71c-39.83,10.23-80.51,14.98-121.38,18.08c-141.07,10.71-282.36,11.2-423.69,8.26   c-74.97-1.56-149.92-4.08-224.86-6.73c-28.96-1.02-57.94-2.8-86.76-5.74c-17.45-1.78-34.9-5.36-51.82-10.05   c-28.76-7.97-49.37-26.3-59.28-54.69c-10.08-28.88-19.76-57.98-27.71-87.49c-9.51-35.32-17-71.18-25.75-108.41   c-1.16,3.41-2.11,5.61-2.66,7.9c-5.81,24.33-12.89,48.22-23.59,70.92c-6.56,13.92-14.24,27.16-24.33,38.83   c-18.12,20.96-39.92,33.89-69.77,30.34c0.95,8.66,1.93,16.81,2.74,24.97c8.31,83.29-3.52,162.88-44.89,236.62   c-37.88,67.53-92.21,118.31-160.36,154.64c-6.61,3.53-13.38,5-20.95,5.19c-93.46,2.31-183.36-16.54-271.6-45.31   c-37.68-12.29-74.53-26.79-110.5-43.47c-2.96-1.37-5.86-2.9-10.44-5.19c3.8-0.53,5.86-1,7.93-1.07   c45.31-1.53,90.54-4.06,135.58-9.46c96.68-11.59,190.98-32.32,279.74-73.84c47.99-22.45,92.56-50.14,129.99-88.14   c8.62-8.75,16.11-18.63,24.12-27.99c4.54-5.3,6.09-11.39,6.28-18.4c1.23-46.49-11.95-88.72-37.06-127.48   c-19.04-29.39-42.89-54.33-70.75-75.48C849.49,1696.64,846.83,1694.72,843.78,1692.47z" />
	<path fill="#FDFDFD" d="M2505.66,1086.41c12.37,58.38,24.74,116.75,37.25,175.8c-7.7-2.39-13.95-4.42-20.28-6.22   c-1.13-0.32-2.53,0.33-4.42,0.62c-0.17,2.73-0.6,5.32-0.45,7.88c2.48,44.56,4.7,89.14,7.66,133.67   c2.39,35.89,5.91,71.7,8.53,107.58c1.63,22.25,3.42,44.55,3.59,66.84c0.58,76.35-10.26,151.35-28.44,225.36   c-12.71,51.77-28.75,102.48-49.07,151.8c-1.19,2.89-2.66,5.68-5.37,8.1c-0.74-9.14-1.59-18.28-2.21-27.43   c-3.63-53.84-7.12-107.69-10.84-161.53c-4.98-72.11-10.18-144.21-15.16-216.32c-3.72-53.84-7.18-107.69-10.84-161.53   c-4.02-59.16-8.08-118.31-12.31-177.45c-0.33-4.64,0.48-8.17,3.53-11.8c31.52-37.49,62.88-75.1,94.27-112.7   c0.84-1.01,1.47-2.2,2.2-3.31C2504.09,1085.98,2504.87,1086.2,2505.66,1086.41z" />
	<path fill="#FCFCFD" d="M2293.54,1143.65c19.8-42.99,47.76-79.79,85.71-111.73c-5.94-0.7-10.26-1.25-14.59-1.73   c-15.11-1.67-29.27-6.12-42.24-14.17c-9.77-6.07-17.86-13.89-24.28-23.42c-10.63-15.77-10.54-16.64,0.71-32.11   c23.91-32.87,47.72-65.82,71.67-98.66c13.79-18.91,29.03-36.54,47.54-51.06c13.75-10.79,28.57-19.66,45.93-23.28   c34.4-7.17,61.85,5.02,85.37,30.97c-18.83,28.58-37.44,56.83-56.46,85.71c-20.31-18.68-43.37-29.39-70.79-29   c-21.42,0.3-41.28,6.04-60.06,17.25c4.21,11.5,11.76,19.57,21.32,25.99c14.4,9.68,30.67,14.41,47.47,17.4   c31.39,5.59,63,5.2,94.67,3.04c31.94-2.18,63.59-6.48,95.01-12.6c1.81-0.35,3.72-0.23,7.1-0.41c-2.75,4.03-4.67,7.02-6.76,9.88   c-17.28,23.68-34.93,47.11-51.71,71.15c-5.35,7.67-11.36,10.47-20.45,11.04c-48.04,3.05-93.89,14.97-137.22,36.09   c-45.29,22.07-84.18,52.3-115.63,91.84C2295.07,1145.12,2294.31,1144.39,2293.54,1143.65z" />
	<path fill="#FDFDFD" d="M2082.93,1399.22c-28.45,35.95-56.5,71.39-84.88,107.25c-32.65-35.15-72.2-59.49-112.53-84   c-22.41,28.26-44.31,55.87-66.6,83.98c-32.24-35.02-72.13-59.14-112.84-84.43c27.27-37.93,54.37-75.62,82.22-114.35   c8.15,3.94,16.38,7.34,24.05,11.72c30.15,17.17,55.22,40.52,78.73,65.7c3.4,3.65,6.77,7.33,10.18,10.97   c0.19,0.21,0.61,0.21,2.01,0.64c21.09-29.25,42.41-58.8,64.12-88.91C2014.89,1327.24,2049.48,1361.92,2082.93,1399.22z" />
	<path fill="#FDFDFD" d="M1239.34,2102.14c21.54-29.89,42.72-59.3,64.58-89.64c3.66,1.42,7.33,2.63,10.83,4.23   c16.78,7.63,31.9,17.92,46.24,29.41c19.55,15.67,37.31,33.22,53.82,52.04c1.49,1.7,2.76,3.59,4.53,5.91   c-28.05,35.45-55.91,70.66-84.4,106.66c-32.38-34.69-71.86-59.13-112.53-83.96c-22.22,27.98-44.28,55.76-66.71,84.01   c-32.39-35.24-72.35-59.21-112.78-84.42c27.16-37.79,54.11-75.28,81.62-113.56c2.63,0.86,5.4,1.55,8.01,2.64   c20.51,8.57,38.69,20.97,55.13,35.64c15.39,13.73,29.73,28.63,44.47,43.07C1234.5,2096.47,1236.57,2099.06,1239.34,2102.14z" />
	<path fill="#FDFDFD" d="M1990.26,1213.42c-28.56,36.08-56.65,71.56-84.94,107.29c-32.42-35.25-72.4-59.33-112.85-84.47   c27.48-38.19,54.63-75.93,82.17-114.2C1922.34,1141.48,1956.82,1176.24,1990.26,1213.42z" />
	<path fill="#9A9BAC" d="M2293.54,1143.65c0.77,0.73,1.53,1.46,2.3,2.19c-1.93,2.96-3.86,5.92-5.79,8.88   c-0.58-0.31-1.17-0.62-1.76-0.92C2290.04,1150.42,2291.79,1147.04,2293.54,1143.65z" />
</g>
</svg>